# xmcd
#
# Track frame offsets:
#	150
#	11680
#	24590
#	47362
#	69115
#	86625
#	104862
#	137465
#
# Disc length: 2128
#
# Revision: 2
# Processed by: cddbd v1.5.1PL0 Copyright (c) Steve Scherf et al.
# Submitted via: EasyCDDAExtractor 6.2.0.3
# Normalized: r1:DSETVAR1
#
DISCID=5e084e08
DTITLE=Various Artist - Slows
DYEAR=1900
DGENRE=
TTITLE0=The Platters - Only you (and you alone)
TTITLE1=James Brown - It's a man's man's man's world
TTITLE2=Marvin Gaye - I heard it trought the grapevine
TTITLE3=Barry White - Just the way you are
TTITLE4=Joe Cocker and Jennifer Warnes - Up where we belong
TTITLE5=Lionel Ritchie - Say you, say me
TTITLE6=The Christians - Words
TTITLE7=Sam Brown - Stop
EXTD=
EXTT0=
EXTT1=
EXTT2=
EXTT3=
EXTT4=
EXTT5=
EXTT6=
EXTT7=
PLAYORDER=
